<svg xmlns="http://www.w3.org/2000/svg" viewBox="0 0 1030 616" id="LintLifter-Logo">
  <title>LintLifter Logo</title>
  <defs>
    <style>
      .cls-2,.cls-3{fill-rule:evenodd}.cls-2{fill:#fff}.cls-3{fill:#198585}
    </style>
  </defs>
  <path id="Color_Fill_1_copy_2" d="M202.091 32.278S19.5 461.593 19.931 461.593c-33.3 79.826-33.894 154.033 86.809 154.017-.014.016 922.42-.006 922.42-.006V380.928l-692.116.431 104.945-246.03S357.983.777 358 .7c-.02.078-155.909 31.578-155.909 31.578Z" data-name="Color Fill 1 copy 2" style="fill-rule:evenodd;fill:#1a8417"/>
  <path id="int_ifter_copy" d="M963.784 506.041a63.158 63.158 0 0 1-7.313 6.3L981.2 537.6l-.038 67.837L868.4 493.178h2.321l-.167-.129 19.857.1 8.337-.012q11.44-.462 17.761-6.346 6.858-6.386 6.858-17.929 0-10.306-6.264-16.28t-20.411-5.982h-40.821v157.319h-57.8V449.97l57.8-58.339h56.179q31.923 0 51.33 16.836t19.4 50.1q0 28.402-18.996 47.474ZM706.737 446.6v26.372h75.983v52.138h-75.983v26.271h75.983v52.945H648.537V450.083l58.2-58.452h130.142L781.912 446.6h-75.175Zm-95.784 0v157.723h-58.2V446.7l.107-.1h-52.927l54.567-54.969h130.011L629.7 446.6h-18.747Zm-205.719 0v26.372h75.983v52.138h-75.983v79.216h-58.2V450.083l58.2-58.452h130.142L481.217 446.6h-75.983Zm-134.586 3.486 58.2-58.452v212.689h-58.2v-154.24Z" class="cls-2" data-name="int ifter copy"/>
  <path id="int_ifter_copy_2" d="M974.048 209.1H955.3v157.723h-58.2V209.2l.107-.1h-52.928l54.563-54.966h130.018ZM686.935 366.823h-58.2v-154.24l58.2-58.452L687 154l75 76 .514-75.869h61.837v212.288L686.935 229.735v137.088Zm-134.586-154.24 58.2-58.452v212.692h-58.2v-154.24Z" class="cls-3" data-name="int ifter copy 2"/>
  <path id="L_Lifter" d="M244 391h-70L84.125 603.934h167.824v-66.973L185 537Z" class="cls-2" data-name="L Lifter"/>
  <path id="L_Lint" d="M521 154h-70l-89.875 212.934h167.824v-66.973L462 300Z" class="cls-3" data-name="L Lint"/>
</svg>
